<mxfile host="app.diagrams.net" modified="2022-02-01T12:14:50.176Z" agent="5.0 (Windows NT 10.0; Win64; x64) AppleWebKit/537.36 (KHTML, like Gecko) Chrome/97.0.4692.99 Safari/537.36" etag="mUa9IkiOz94dPbEpzpNH" version="16.5.2" type="github" pages="2">
  <diagram id="R2lEEEUBdFMjLlhIrx00" name="Page-1">
    <mxGraphModel dx="782" dy="468" grid="1" gridSize="10" guides="1" tooltips="1" connect="1" arrows="1" fold="1" page="1" pageScale="1" pageWidth="850" pageHeight="1100" math="0" shadow="0" extFonts="Permanent Marker^https://fonts.googleapis.com/css?family=Permanent+Marker">
      <root>
        <mxCell id="0" />
        <mxCell id="1" parent="0" />
        <mxCell id="znyppQzm-CV1jz7y8HOZ-1" value="Exon" style="whiteSpace=wrap;html=1;align=center;" vertex="1" parent="1">
          <mxGeometry x="630" y="20" width="100" height="40" as="geometry" />
        </mxCell>
        <mxCell id="UilYKWT9dlSqTcWVSsc_-2" style="edgeStyle=orthogonalEdgeStyle;rounded=0;orthogonalLoop=1;jettySize=auto;html=1;strokeColor=default;endArrow=none;endFill=0;startArrow=none;startFill=0;" edge="1" parent="1" source="znyppQzm-CV1jz7y8HOZ-2" target="znyppQzm-CV1jz7y8HOZ-7">
          <mxGeometry relative="1" as="geometry" />
        </mxCell>
        <mxCell id="UilYKWT9dlSqTcWVSsc_-4" style="edgeStyle=orthogonalEdgeStyle;rounded=0;orthogonalLoop=1;jettySize=auto;html=1;exitX=0.25;exitY=0;exitDx=0;exitDy=0;entryX=0.5;entryY=1;entryDx=0;entryDy=0;startArrow=none;startFill=0;endArrow=none;endFill=0;strokeColor=default;" edge="1" parent="1" source="znyppQzm-CV1jz7y8HOZ-2" target="znyppQzm-CV1jz7y8HOZ-8">
          <mxGeometry relative="1" as="geometry" />
        </mxCell>
        <mxCell id="UilYKWT9dlSqTcWVSsc_-5" style="edgeStyle=orthogonalEdgeStyle;rounded=0;orthogonalLoop=1;jettySize=auto;html=1;exitX=1;exitY=0.5;exitDx=0;exitDy=0;entryX=1;entryY=1;entryDx=0;entryDy=0;startArrow=none;startFill=0;endArrow=none;endFill=0;strokeColor=default;" edge="1" parent="1" source="znyppQzm-CV1jz7y8HOZ-10" target="znyppQzm-CV1jz7y8HOZ-11">
          <mxGeometry relative="1" as="geometry">
            <Array as="points">
              <mxPoint x="230" y="85" />
              <mxPoint x="230" y="70" />
              <mxPoint x="164" y="70" />
            </Array>
          </mxGeometry>
        </mxCell>
        <mxCell id="UilYKWT9dlSqTcWVSsc_-6" style="edgeStyle=orthogonalEdgeStyle;rounded=0;orthogonalLoop=1;jettySize=auto;html=1;exitX=0;exitY=0.5;exitDx=0;exitDy=0;entryX=0.633;entryY=0;entryDx=0;entryDy=0;entryPerimeter=0;startArrow=none;startFill=0;endArrow=none;endFill=0;strokeColor=default;" edge="1" parent="1" source="znyppQzm-CV1jz7y8HOZ-2" target="znyppQzm-CV1jz7y8HOZ-9">
          <mxGeometry relative="1" as="geometry" />
        </mxCell>
        <mxCell id="UilYKWT9dlSqTcWVSsc_-51" style="edgeStyle=orthogonalEdgeStyle;rounded=0;orthogonalLoop=1;jettySize=auto;html=1;exitX=0.25;exitY=1;exitDx=0;exitDy=0;entryX=0.5;entryY=0;entryDx=0;entryDy=0;startArrow=none;startFill=0;endArrow=none;endFill=0;strokeColor=default;" edge="1" parent="1" source="znyppQzm-CV1jz7y8HOZ-2" target="UilYKWT9dlSqTcWVSsc_-47">
          <mxGeometry relative="1" as="geometry" />
        </mxCell>
        <mxCell id="znyppQzm-CV1jz7y8HOZ-2" value="Gene" style="whiteSpace=wrap;html=1;align=center;" vertex="1" parent="1">
          <mxGeometry x="230" y="80" width="100" height="40" as="geometry" />
        </mxCell>
        <mxCell id="znyppQzm-CV1jz7y8HOZ-3" value="Intron" style="whiteSpace=wrap;html=1;align=center;" vertex="1" parent="1">
          <mxGeometry x="630" y="160" width="100" height="40" as="geometry" />
        </mxCell>
        <mxCell id="znyppQzm-CV1jz7y8HOZ-4" value="Trans promo elem" style="whiteSpace=wrap;html=1;align=center;" vertex="1" parent="1">
          <mxGeometry x="410" y="220" width="100" height="40" as="geometry" />
        </mxCell>
        <mxCell id="znyppQzm-CV1jz7y8HOZ-5" value="Student" style="whiteSpace=wrap;html=1;align=center;" vertex="1" parent="1">
          <mxGeometry x="720" y="280" width="100" height="40" as="geometry" />
        </mxCell>
        <mxCell id="UilYKWT9dlSqTcWVSsc_-48" style="edgeStyle=orthogonalEdgeStyle;rounded=0;orthogonalLoop=1;jettySize=auto;html=1;entryX=0.5;entryY=1;entryDx=0;entryDy=0;startArrow=none;startFill=0;endArrow=none;endFill=0;strokeColor=default;" edge="1" parent="1" source="znyppQzm-CV1jz7y8HOZ-6" target="UilYKWT9dlSqTcWVSsc_-47">
          <mxGeometry relative="1" as="geometry">
            <Array as="points">
              <mxPoint x="170" y="410" />
              <mxPoint x="170" y="410" />
            </Array>
          </mxGeometry>
        </mxCell>
        <mxCell id="znyppQzm-CV1jz7y8HOZ-6" value="Experiment" style="whiteSpace=wrap;html=1;align=center;" vertex="1" parent="1">
          <mxGeometry x="140" y="430" width="100" height="40" as="geometry" />
        </mxCell>
        <mxCell id="znyppQzm-CV1jz7y8HOZ-7" value="end pos" style="ellipse;whiteSpace=wrap;html=1;align=center;" vertex="1" parent="1">
          <mxGeometry x="290" y="10" width="75" height="30" as="geometry" />
        </mxCell>
        <mxCell id="znyppQzm-CV1jz7y8HOZ-8" value="start pos" style="ellipse;whiteSpace=wrap;html=1;align=center;" vertex="1" parent="1">
          <mxGeometry x="192.5" y="10" width="75" height="30" as="geometry" />
        </mxCell>
        <mxCell id="znyppQzm-CV1jz7y8HOZ-9" value="Chromosome no." style="ellipse;whiteSpace=wrap;html=1;align=center;" vertex="1" parent="1">
          <mxGeometry x="100" y="130" width="100" height="40" as="geometry" />
        </mxCell>
        <mxCell id="znyppQzm-CV1jz7y8HOZ-10" value="organism" style="ellipse;whiteSpace=wrap;html=1;align=center;" vertex="1" parent="1">
          <mxGeometry x="80" y="70" width="75" height="30" as="geometry" />
        </mxCell>
        <mxCell id="znyppQzm-CV1jz7y8HOZ-11" value="name" style="ellipse;whiteSpace=wrap;html=1;align=center;" vertex="1" parent="1">
          <mxGeometry x="100" y="10" width="75" height="30" as="geometry" />
        </mxCell>
        <mxCell id="UilYKWT9dlSqTcWVSsc_-8" style="edgeStyle=orthogonalEdgeStyle;rounded=0;orthogonalLoop=1;jettySize=auto;html=1;exitX=1;exitY=0.5;exitDx=0;exitDy=0;startArrow=block;startFill=1;endArrow=none;endFill=0;strokeColor=default;" edge="1" parent="1" source="znyppQzm-CV1jz7y8HOZ-12" target="znyppQzm-CV1jz7y8HOZ-3">
          <mxGeometry relative="1" as="geometry" />
        </mxCell>
        <mxCell id="znyppQzm-CV1jz7y8HOZ-12" value="Componsed" style="shape=rhombus;perimeter=rhombusPerimeter;whiteSpace=wrap;html=1;align=center;" vertex="1" parent="1">
          <mxGeometry x="440" y="110" width="120" height="60" as="geometry" />
        </mxCell>
        <mxCell id="UilYKWT9dlSqTcWVSsc_-18" style="edgeStyle=orthogonalEdgeStyle;rounded=0;orthogonalLoop=1;jettySize=auto;html=1;exitX=1;exitY=0.5;exitDx=0;exitDy=0;startArrow=block;startFill=1;endArrow=none;endFill=0;strokeColor=default;" edge="1" parent="1" source="UilYKWT9dlSqTcWVSsc_-16" target="znyppQzm-CV1jz7y8HOZ-1">
          <mxGeometry relative="1" as="geometry" />
        </mxCell>
        <mxCell id="UilYKWT9dlSqTcWVSsc_-16" value="Componsed" style="shape=rhombus;perimeter=rhombusPerimeter;whiteSpace=wrap;html=1;align=center;" vertex="1" parent="1">
          <mxGeometry x="440" y="10" width="120" height="60" as="geometry" />
        </mxCell>
        <mxCell id="UilYKWT9dlSqTcWVSsc_-17" style="edgeStyle=orthogonalEdgeStyle;rounded=0;orthogonalLoop=1;jettySize=auto;html=1;exitX=1;exitY=0.5;exitDx=0;exitDy=0;entryX=0;entryY=0.5;entryDx=0;entryDy=0;startArrow=none;startFill=0;endArrow=oval;endFill=1;strokeColor=default;" edge="1" parent="1" source="znyppQzm-CV1jz7y8HOZ-2" target="UilYKWT9dlSqTcWVSsc_-16">
          <mxGeometry relative="1" as="geometry" />
        </mxCell>
        <mxCell id="UilYKWT9dlSqTcWVSsc_-15" style="edgeStyle=orthogonalEdgeStyle;rounded=0;orthogonalLoop=1;jettySize=auto;html=1;exitX=1;exitY=0.5;exitDx=0;exitDy=0;entryX=0;entryY=0.5;entryDx=0;entryDy=0;startArrow=none;startFill=0;endArrow=oval;endFill=0;strokeColor=default;" edge="1" parent="1" source="znyppQzm-CV1jz7y8HOZ-2" target="znyppQzm-CV1jz7y8HOZ-12">
          <mxGeometry relative="1" as="geometry" />
        </mxCell>
        <mxCell id="UilYKWT9dlSqTcWVSsc_-29" style="edgeStyle=orthogonalEdgeStyle;rounded=0;orthogonalLoop=1;jettySize=auto;html=1;exitX=0.5;exitY=0;exitDx=0;exitDy=0;startArrow=none;startFill=0;endArrow=none;endFill=0;strokeColor=default;" edge="1" parent="1" source="UilYKWT9dlSqTcWVSsc_-19" target="znyppQzm-CV1jz7y8HOZ-1">
          <mxGeometry relative="1" as="geometry">
            <Array as="points">
              <mxPoint x="718" y="80" />
              <mxPoint x="680" y="80" />
            </Array>
          </mxGeometry>
        </mxCell>
        <mxCell id="UilYKWT9dlSqTcWVSsc_-19" value="num gen seq" style="ellipse;whiteSpace=wrap;html=1;align=center;" vertex="1" parent="1">
          <mxGeometry x="680" y="90" width="75" height="30" as="geometry" />
        </mxCell>
        <mxCell id="UilYKWT9dlSqTcWVSsc_-27" style="edgeStyle=orthogonalEdgeStyle;rounded=0;orthogonalLoop=1;jettySize=auto;html=1;startArrow=none;startFill=0;endArrow=none;endFill=0;strokeColor=default;" edge="1" parent="1" source="UilYKWT9dlSqTcWVSsc_-20" target="znyppQzm-CV1jz7y8HOZ-1">
          <mxGeometry relative="1" as="geometry">
            <Array as="points">
              <mxPoint x="808" y="60" />
            </Array>
          </mxGeometry>
        </mxCell>
        <mxCell id="UilYKWT9dlSqTcWVSsc_-20" value="stop pos" style="ellipse;whiteSpace=wrap;html=1;align=center;" vertex="1" parent="1">
          <mxGeometry x="770" y="80" width="75" height="30" as="geometry" />
        </mxCell>
        <mxCell id="UilYKWT9dlSqTcWVSsc_-26" value="" style="edgeStyle=orthogonalEdgeStyle;rounded=0;orthogonalLoop=1;jettySize=auto;html=1;startArrow=none;startFill=0;endArrow=none;endFill=0;strokeColor=default;" edge="1" parent="1" source="UilYKWT9dlSqTcWVSsc_-22" target="znyppQzm-CV1jz7y8HOZ-1">
          <mxGeometry relative="1" as="geometry" />
        </mxCell>
        <mxCell id="UilYKWT9dlSqTcWVSsc_-22" value="start pos" style="ellipse;whiteSpace=wrap;html=1;align=center;" vertex="1" parent="1">
          <mxGeometry x="770" y="10" width="75" height="30" as="geometry" />
        </mxCell>
        <mxCell id="UilYKWT9dlSqTcWVSsc_-37" style="edgeStyle=orthogonalEdgeStyle;rounded=0;orthogonalLoop=1;jettySize=auto;html=1;entryX=0.75;entryY=1;entryDx=0;entryDy=0;startArrow=none;startFill=0;endArrow=none;endFill=0;strokeColor=default;" edge="1" parent="1" source="UilYKWT9dlSqTcWVSsc_-23" target="znyppQzm-CV1jz7y8HOZ-3">
          <mxGeometry relative="1" as="geometry" />
        </mxCell>
        <mxCell id="UilYKWT9dlSqTcWVSsc_-23" value="num gen seq" style="ellipse;whiteSpace=wrap;html=1;align=center;" vertex="1" parent="1">
          <mxGeometry x="655" y="240" width="75" height="30" as="geometry" />
        </mxCell>
        <mxCell id="UilYKWT9dlSqTcWVSsc_-32" style="edgeStyle=orthogonalEdgeStyle;rounded=0;orthogonalLoop=1;jettySize=auto;html=1;entryX=1;entryY=0.5;entryDx=0;entryDy=0;startArrow=none;startFill=0;endArrow=none;endFill=0;strokeColor=default;" edge="1" parent="1" source="UilYKWT9dlSqTcWVSsc_-24" target="znyppQzm-CV1jz7y8HOZ-3">
          <mxGeometry relative="1" as="geometry" />
        </mxCell>
        <mxCell id="UilYKWT9dlSqTcWVSsc_-24" value="stop pos" style="ellipse;whiteSpace=wrap;html=1;align=center;" vertex="1" parent="1">
          <mxGeometry x="770" y="200" width="75" height="30" as="geometry" />
        </mxCell>
        <mxCell id="UilYKWT9dlSqTcWVSsc_-33" style="edgeStyle=orthogonalEdgeStyle;rounded=0;orthogonalLoop=1;jettySize=auto;html=1;entryX=1;entryY=0.25;entryDx=0;entryDy=0;startArrow=none;startFill=0;endArrow=none;endFill=0;strokeColor=default;" edge="1" parent="1" source="UilYKWT9dlSqTcWVSsc_-25" target="znyppQzm-CV1jz7y8HOZ-3">
          <mxGeometry relative="1" as="geometry" />
        </mxCell>
        <mxCell id="UilYKWT9dlSqTcWVSsc_-25" value="start pos" style="ellipse;whiteSpace=wrap;html=1;align=center;" vertex="1" parent="1">
          <mxGeometry x="770" y="150" width="75" height="30" as="geometry" />
        </mxCell>
        <mxCell id="UilYKWT9dlSqTcWVSsc_-38" value="Associated" style="shape=rhombus;perimeter=rhombusPerimeter;whiteSpace=wrap;html=1;align=center;" vertex="1" parent="1">
          <mxGeometry x="240" y="180" width="120" height="60" as="geometry" />
        </mxCell>
        <mxCell id="UilYKWT9dlSqTcWVSsc_-39" style="edgeStyle=orthogonalEdgeStyle;rounded=0;orthogonalLoop=1;jettySize=auto;html=1;exitX=0.5;exitY=0;exitDx=0;exitDy=0;entryX=0.5;entryY=1;entryDx=0;entryDy=0;startArrow=oval;startFill=0;endArrow=none;endFill=0;strokeColor=default;" edge="1" parent="1" source="UilYKWT9dlSqTcWVSsc_-38" target="znyppQzm-CV1jz7y8HOZ-2">
          <mxGeometry relative="1" as="geometry" />
        </mxCell>
        <mxCell id="UilYKWT9dlSqTcWVSsc_-40" style="edgeStyle=orthogonalEdgeStyle;rounded=0;orthogonalLoop=1;jettySize=auto;html=1;exitX=1;exitY=0.5;exitDx=0;exitDy=0;entryX=0;entryY=0.5;entryDx=0;entryDy=0;startArrow=oval;startFill=1;endArrow=none;endFill=0;strokeColor=default;" edge="1" parent="1" source="UilYKWT9dlSqTcWVSsc_-38" target="znyppQzm-CV1jz7y8HOZ-4">
          <mxGeometry relative="1" as="geometry" />
        </mxCell>
        <mxCell id="UilYKWT9dlSqTcWVSsc_-46" value="" style="edgeStyle=orthogonalEdgeStyle;rounded=0;orthogonalLoop=1;jettySize=auto;html=1;startArrow=none;startFill=0;endArrow=none;endFill=0;strokeColor=default;" edge="1" parent="1" source="UilYKWT9dlSqTcWVSsc_-41" target="znyppQzm-CV1jz7y8HOZ-4">
          <mxGeometry relative="1" as="geometry" />
        </mxCell>
        <mxCell id="UilYKWT9dlSqTcWVSsc_-41" value="name" style="ellipse;whiteSpace=wrap;html=1;align=center;" vertex="1" parent="1">
          <mxGeometry x="410" y="290" width="75" height="30" as="geometry" />
        </mxCell>
        <mxCell id="UilYKWT9dlSqTcWVSsc_-44" style="edgeStyle=orthogonalEdgeStyle;rounded=0;orthogonalLoop=1;jettySize=auto;html=1;entryX=1;entryY=0.5;entryDx=0;entryDy=0;startArrow=none;startFill=0;endArrow=none;endFill=0;strokeColor=default;" edge="1" parent="1" source="UilYKWT9dlSqTcWVSsc_-42" target="znyppQzm-CV1jz7y8HOZ-4">
          <mxGeometry relative="1" as="geometry">
            <Array as="points">
              <mxPoint x="550" y="240" />
            </Array>
          </mxGeometry>
        </mxCell>
        <mxCell id="UilYKWT9dlSqTcWVSsc_-42" value="type" style="ellipse;whiteSpace=wrap;html=1;align=center;" vertex="1" parent="1">
          <mxGeometry x="525" y="250" width="75" height="30" as="geometry" />
        </mxCell>
        <mxCell id="UilYKWT9dlSqTcWVSsc_-47" value="Test" style="shape=rhombus;perimeter=rhombusPerimeter;whiteSpace=wrap;html=1;align=center;" vertex="1" parent="1">
          <mxGeometry x="110" y="260" width="120" height="60" as="geometry" />
        </mxCell>
        <mxCell id="UilYKWT9dlSqTcWVSsc_-52" value="Student" style="whiteSpace=wrap;html=1;align=center;" vertex="1" parent="1">
          <mxGeometry x="425" y="430" width="100" height="40" as="geometry" />
        </mxCell>
      </root>
    </mxGraphModel>
  </diagram>
  <diagram id="6p9xum-TQfAVBMa56bzL" name="Page-2">
    <mxGraphModel dx="782" dy="468" grid="1" gridSize="10" guides="1" tooltips="1" connect="1" arrows="1" fold="1" page="1" pageScale="1" pageWidth="850" pageHeight="1100" math="0" shadow="0">
      <root>
        <mxCell id="R70QTAhS8_WOHy340G7a-0" />
        <mxCell id="R70QTAhS8_WOHy340G7a-1" parent="R70QTAhS8_WOHy340G7a-0" />
      </root>
    </mxGraphModel>
  </diagram>
</mxfile>
